<svg width="38" height="38" viewBox="0 0 38 38" fill="none" xmlns="http://www.w3.org/2000/svg">
<path d="M23.75 36.0207H14.25C5.65246 36.0207 1.97913 32.3473 1.97913 23.7498V14.2498C1.97913 5.65234 5.65246 1.979 14.25 1.979H23.75C32.3475 1.979 36.0208 5.65234 36.0208 14.2498V23.7498C36.0208 32.3473 32.3475 36.0207 23.75 36.0207ZM14.25 4.354C6.95079 4.354 4.35413 6.95067 4.35413 14.2498V23.7498C4.35413 31.049 6.95079 33.6457 14.25 33.6457H23.75C31.0491 33.6457 33.6458 31.049 33.6458 23.7498V14.2498C33.6458 6.95067 31.0491 4.354 23.75 4.354H14.25Z" fill="#6E7278"/>
<path d="M14.25 17.0208C11.8434 17.0208 9.89587 15.0733 9.89587 12.6667C9.89587 10.26 11.8434 8.3125 14.25 8.3125C16.6567 8.3125 18.6042 10.26 18.6042 12.6667C18.6042 15.0733 16.6567 17.0208 14.25 17.0208ZM14.25 10.6875C13.1575 10.6875 12.2709 11.5742 12.2709 12.6667C12.2709 13.7592 13.1575 14.6458 14.25 14.6458C15.3425 14.6458 16.2292 13.7592 16.2292 12.6667C16.2292 11.5742 15.3425 10.6875 14.25 10.6875Z" fill="#6E7278"/>
<path d="M4.22755 31.1917C3.84755 31.1917 3.46755 31.0017 3.24588 30.6692C2.88171 30.1309 3.02421 29.3867 3.57838 29.0226L11.3842 23.7817C13.0942 22.6259 15.4534 22.7684 17.005 24.0826L17.5275 24.5417C18.3192 25.2226 19.665 25.2226 20.4409 24.5417L27.0275 18.8892C28.7059 17.4484 31.35 17.4484 33.0442 18.8892L35.625 21.1059C36.1159 21.5334 36.1792 22.2776 35.7517 22.7842C35.3242 23.2751 34.58 23.3384 34.0734 22.9109L31.4925 20.6942C30.7009 20.0134 29.355 20.0134 28.5634 20.6942L21.9767 26.3467C20.2984 27.7875 17.6542 27.7875 15.96 26.3467L15.4375 25.8876C14.7092 25.2701 13.5059 25.2067 12.6984 25.7609L4.89255 31.0017C4.68671 31.1284 4.44921 31.1917 4.22755 31.1917Z" fill="#6E7278"/>
</svg>
