<svg width="20" height="21" viewBox="0 0 20 21" fill="none" xmlns="http://www.w3.org/2000/svg">
<path d="M10 13.7246C8.275 13.7246 6.875 12.3246 6.875 10.5996C6.875 8.87461 8.275 7.47461 10 7.47461C11.725 7.47461 13.125 8.87461 13.125 10.5996C13.125 12.3246 11.725 13.7246 10 13.7246ZM10 8.72461C8.96667 8.72461 8.125 9.56628 8.125 10.5996C8.125 11.6329 8.96667 12.4746 10 12.4746C11.0333 12.4746 11.875 11.6329 11.875 10.5996C11.875 9.56628 11.0333 8.72461 10 8.72461Z" fill="#FE645E"/>
<path d="M12.6748 19.0913C12.4998 19.0913 12.3248 19.0663 12.1498 19.0246C11.6332 18.8829 11.1998 18.5579 10.9248 18.0996L10.8248 17.9329C10.3332 17.0829 9.65817 17.0829 9.1665 17.9329L9.07484 18.0913C8.79984 18.5579 8.3665 18.8913 7.84984 19.0246C7.32484 19.1663 6.78317 19.0913 6.32484 18.8163L4.8915 17.9913C4.38317 17.6996 4.0165 17.2246 3.85817 16.6496C3.70817 16.0746 3.78317 15.4829 4.07484 14.9746C4.3165 14.5496 4.38317 14.1663 4.2415 13.9246C4.09984 13.6829 3.7415 13.5413 3.24984 13.5413C2.03317 13.5413 1.0415 12.5496 1.0415 11.3329V9.86628C1.0415 8.64961 2.03317 7.65794 3.24984 7.65794C3.7415 7.65794 4.09984 7.51628 4.2415 7.27461C4.38317 7.03294 4.32484 6.64961 4.07484 6.22461C3.78317 5.71628 3.70817 5.11628 3.85817 4.54961C4.00817 3.97461 4.37484 3.49961 4.8915 3.20794L6.33317 2.38294C7.27484 1.82461 8.5165 2.14961 9.08317 3.10794L9.18317 3.27461C9.67484 4.12461 10.3498 4.12461 10.8415 3.27461L10.9332 3.11628C11.4998 2.14961 12.7415 1.82461 13.6915 2.39128L15.1248 3.21628C15.6332 3.50794 15.9998 3.98294 16.1582 4.55794C16.3082 5.13294 16.2332 5.72461 15.9415 6.23294C15.6998 6.65794 15.6332 7.04128 15.7748 7.28294C15.9165 7.52461 16.2748 7.66628 16.7665 7.66628C17.9832 7.66628 18.9748 8.65794 18.9748 9.87461V11.3413C18.9748 12.5579 17.9832 13.5496 16.7665 13.5496C16.2748 13.5496 15.9165 13.6913 15.7748 13.9329C15.6332 14.1746 15.6915 14.5579 15.9415 14.9829C16.2332 15.4913 16.3165 16.0913 16.1582 16.6579C16.0082 17.2329 15.6415 17.7079 15.1248 17.9996L13.6832 18.8246C13.3665 18.9996 13.0248 19.0913 12.6748 19.0913ZM9.99984 16.0079C10.7415 16.0079 11.4332 16.4746 11.9082 17.2996L11.9998 17.4579C12.0998 17.6329 12.2665 17.7579 12.4665 17.8079C12.6665 17.8579 12.8665 17.8329 13.0332 17.7329L14.4748 16.8996C14.6915 16.7746 14.8582 16.5663 14.9248 16.3163C14.9915 16.0663 14.9582 15.8079 14.8332 15.5913C14.3582 14.7746 14.2998 13.9329 14.6665 13.2913C15.0332 12.6496 15.7915 12.2829 16.7415 12.2829C17.2748 12.2829 17.6998 11.8579 17.6998 11.3246V9.85794C17.6998 9.33294 17.2748 8.89961 16.7415 8.89961C15.7915 8.89961 15.0332 8.53294 14.6665 7.89128C14.2998 7.24961 14.3582 6.40794 14.8332 5.59128C14.9582 5.37461 14.9915 5.11628 14.9248 4.86628C14.8582 4.61628 14.6998 4.41628 14.4832 4.28294L13.0415 3.45794C12.6832 3.24128 12.2082 3.36628 11.9915 3.73294L11.8998 3.89128C11.4248 4.71628 10.7332 5.18294 9.9915 5.18294C9.24984 5.18294 8.55817 4.71628 8.08317 3.89128L7.9915 3.72461C7.78317 3.37461 7.3165 3.24961 6.95817 3.45794L5.5165 4.29128C5.29984 4.41628 5.13317 4.62461 5.0665 4.87461C4.99984 5.12461 5.03317 5.38294 5.15817 5.59961C5.63317 6.41628 5.6915 7.25794 5.32484 7.89961C4.95817 8.54128 4.19984 8.90794 3.24984 8.90794C2.7165 8.90794 2.2915 9.33294 2.2915 9.86628V11.3329C2.2915 11.8579 2.7165 12.2913 3.24984 12.2913C4.19984 12.2913 4.95817 12.6579 5.32484 13.2996C5.6915 13.9413 5.63317 14.7829 5.15817 15.5996C5.03317 15.8163 4.99984 16.0746 5.0665 16.3246C5.13317 16.5746 5.2915 16.7746 5.50817 16.9079L6.94984 17.7329C7.12484 17.8413 7.33317 17.8663 7.52484 17.8163C7.72484 17.7663 7.8915 17.6329 7.99984 17.4579L8.0915 17.2996C8.5665 16.4829 9.25817 16.0079 9.99984 16.0079Z" fill="#FE645E"/>
</svg>
