<svg width="18" height="18" viewBox="0 0 18 18" fill="none" xmlns="http://www.w3.org/2000/svg">
<path fill-rule="evenodd" clip-rule="evenodd" d="M6.59676 1.59685C6.79211 1.40149 7.05707 1.29175 7.33333 1.29175H10.6667C10.9429 1.29175 11.2079 1.40149 11.4032 1.59685C11.5986 1.7922 11.7083 2.05715 11.7083 2.33342V3.37508H6.29167V2.33342C6.29167 2.05715 6.40141 1.7922 6.59676 1.59685ZM5.04167 3.37508V2.33342C5.04167 1.72563 5.28311 1.14273 5.71288 0.712962C6.14265 0.283191 6.72555 0.041748 7.33333 0.041748H10.6667C11.2745 0.041748 11.8573 0.283191 12.2871 0.712962C12.7169 1.14273 12.9583 1.72563 12.9583 2.33342V3.37508H14.8333H16.5C16.8452 3.37508 17.125 3.6549 17.125 4.00008C17.125 4.34526 16.8452 4.62508 16.5 4.62508H15.4583V15.6667C15.4583 16.2745 15.2169 16.8574 14.7871 17.2872C14.3573 17.717 13.7745 17.9584 13.1667 17.9584H4.83333C4.22555 17.9584 3.64265 17.717 3.21288 17.2872C2.78311 16.8574 2.54167 16.2745 2.54167 15.6667V4.62508H1.5C1.15482 4.62508 0.875 4.34526 0.875 4.00008C0.875 3.6549 1.15482 3.37508 1.5 3.37508H3.16667H5.04167ZM3.79167 4.62508V15.6667C3.79167 15.943 3.90141 16.208 4.09676 16.4033C4.29211 16.5987 4.55707 16.7084 4.83333 16.7084H13.1667C13.4429 16.7084 13.7079 16.5987 13.9032 16.4033C14.0986 16.208 14.2083 15.943 14.2083 15.6667V4.62508H3.79167ZM7.33333 7.54175C7.67851 7.54175 7.95833 7.82157 7.95833 8.16675V13.1667C7.95833 13.5119 7.67851 13.7917 7.33333 13.7917C6.98816 13.7917 6.70833 13.5119 6.70833 13.1667V8.16675C6.70833 7.82157 6.98816 7.54175 7.33333 7.54175ZM11.2917 8.16675C11.2917 7.82157 11.0118 7.54175 10.6667 7.54175C10.3215 7.54175 10.0417 7.82157 10.0417 8.16675V13.1667C10.0417 13.5119 10.3215 13.7917 10.6667 13.7917C11.0118 13.7917 11.2917 13.5119 11.2917 13.1667V8.16675Z" fill="#494949"/>
</svg>
